# xmcd
#
# Track frame offsets:
#	150
#	29142
#	54280
#	78562
#	107555
#	138962
#	165082
#	189687
#	217810
#	244100
#
# Disc length: 3476 seconds
#
# Revision: 1
# Processed by: cddbd v1.5.2PL0 Copyright (c) Steve Scherf et al.
# Submitted via: audiograbber 1.83.01
#
DISCID=7d0d920a
DTITLE=Various Artist - Star Funk Vol. 30
DYEAR=1996
DGENRE=Disco
TTITLE0=Tavares - Heaven Must Be Missing An Angel
TTITLE1=Lydia Murdock - Love On The Line (Remix)
TTITLE2=Hi-Gloss - You'll Never Know
TTITLE3=Patrick Cowley And Linda Imperial - Die Hard Lover
TTITLE4=First Choice - Love And Hapiness
TTITLE5=Archie Bell - Touchin You
TTITLE6=Street People - Wanna Slow Dance With You Baby
TTITLE7=Crown Heights Affair - Dancin
TTITLE8=Jamaica Girls - Rock The Beat
TTITLE9=Gary's Gang - Round and Round and Round
EXTD=
EXTT0=
EXTT1=
EXTT2=
EXTT3=
EXTT4=
EXTT5=
EXTT6=
EXTT7=
EXTT8=
EXTT9=
PLAYORDER=
